<?xml version="1.0" encoding="utf-8" standalone="no"?>
<!DOCTYPE svg PUBLIC "-//W3C//DTD SVG 1.1//EN"
  "http://www.w3.org/Graphics/SVG/1.1/DTD/svg11.dtd">
<svg xmlns:xlink="http://www.w3.org/1999/xlink" width="720pt" height="720pt" viewBox="0 0 720 720" xmlns="http://www.w3.org/2000/svg" version="1.1">
 <metadata>
  <rdf:RDF xmlns:dc="http://purl.org/dc/elements/1.1/" xmlns:cc="http://creativecommons.org/ns#" xmlns:rdf="http://www.w3.org/1999/02/22-rdf-syntax-ns#">
   <cc:Work>
    <dc:type rdf:resource="http://purl.org/dc/dcmitype/StillImage"/>
    <dc:date>2023-11-29T14:56:16.032499</dc:date>
    <dc:format>image/svg+xml</dc:format>
    <dc:creator>
     <cc:Agent>
      <dc:title>Matplotlib v3.5.3, https://matplotlib.org/</dc:title>
     </cc:Agent>
    </dc:creator>
   </cc:Work>
  </rdf:RDF>
 </metadata>
 <defs>
  <style type="text/css">*{stroke-linejoin: round; stroke-linecap: butt}</style>
 </defs>
 <g id="figure_1">
  <g id="patch_1">
   <path d="M 0 720 
L 720 720 
L 720 0 
L 0 0 
z
" style="fill: #ffffff"/>
  </g>
  <g id="axes_1">
   <g id="patch_2">
    <path d="M 91.550008 640.8 
L 646.449992 640.8 
L 646.449992 86.4 
L 91.550008 86.4 
z
" style="fill: #ffffff"/>
   </g>
   <g id="matplotlib.axis_1"/>
   <g id="matplotlib.axis_2"/>
   <g id="line2d_1">
    <path d="M 621.227265 363.6 
L 620.318614 342.209634 
L 617.599206 320.973385 
L 613.088635 300.044263 
L 606.8194 279.573061 
L 598.83667 259.707275 
L 589.197962 240.590038 
L 577.972723 222.359091 
L 565.241831 205.145788 
L 551.097011 189.074151 
L 535.640179 174.259977 
L 518.9827 160.810003 
L 501.244592 148.821134 
L 482.553659 138.379753 
L 463.04457 129.561088 
L 442.857887 122.428679 
L 422.139056 117.033915 
L 401.037357 113.415666 
L 379.704829 111.6 
L 358.295171 111.6 
L 336.962643 113.415666 
L 315.860944 117.033915 
L 295.142113 122.428679 
L 274.95543 129.561088 
L 255.446341 138.379753 
L 236.755408 148.821134 
L 219.0173 160.810003 
L 202.359821 174.259977 
L 186.902989 189.074151 
L 172.758169 205.145788 
L 160.027277 222.359091 
L 148.802038 240.590038 
L 139.16333 259.707275 
L 131.1806 279.573061 
L 124.911365 300.044263 
L 120.400794 320.973385 
L 117.681386 342.209634 
L 116.772735 363.6 
L 117.681386 384.990366 
L 120.400794 406.226615 
L 124.911365 427.155737 
L 131.1806 447.626939 
L 139.16333 467.492725 
L 148.802038 486.609962 
L 160.027277 504.840909 
L 172.758169 522.054212 
L 186.902989 538.125849 
L 202.359821 552.940023 
L 219.0173 566.389997 
L 236.755408 578.378866 
L 255.446341 588.820247 
L 274.95543 597.638912 
L 295.142113 604.771321 
L 315.860944 610.166085 
L 336.962643 613.784334 
L 358.295171 615.6 
L 379.704829 615.6 
L 401.037357 613.784334 
L 422.139056 610.166085 
L 442.857887 604.771321 
L 463.04457 597.638912 
L 482.553659 588.820247 
L 501.244592 578.378866 
L 518.9827 566.389997 
L 535.640179 552.940023 
L 551.097011 538.125849 
L 565.241831 522.054212 
L 577.972723 504.840909 
L 589.197962 486.609962 
L 598.83667 467.492725 
L 606.8194 447.626939 
L 613.088635 427.155737 
L 617.599206 406.226615 
L 620.318614 384.990366 
" clip-path="url(#p43c6428d64)" style="fill: none; stroke: #ff0000; stroke-width: 0.7; stroke-linecap: square"/>
   </g>
   <g id="line2d_2">
    <path d="M 620.318614 342.209634 
L 606.8194 447.626939 
" clip-path="url(#p43c6428d64)" style="fill: none; stroke: #0000ff; stroke-linecap: square"/>
   </g>
   <g id="line2d_3">
    <path d="M 617.599206 320.973385 
L 598.83667 467.492725 
" clip-path="url(#p43c6428d64)" style="fill: none; stroke: #0000ff; stroke-linecap: square"/>
   </g>
   <g id="line2d_4">
    <path d="M 613.088635 300.044263 
L 589.197962 486.609962 
" clip-path="url(#p43c6428d64)" style="fill: none; stroke: #0000ff; stroke-linecap: square"/>
   </g>
   <g id="line2d_5">
    <path d="M 606.8194 279.573061 
L 577.972723 504.840909 
" clip-path="url(#p43c6428d64)" style="fill: none; stroke: #0000ff; stroke-linecap: square"/>
   </g>
   <g id="line2d_6">
    <path d="M 598.83667 259.707275 
L 565.241831 522.054212 
" clip-path="url(#p43c6428d64)" style="fill: none; stroke: #0000ff; stroke-linecap: square"/>
   </g>
   <g id="line2d_7">
    <path d="M 589.197962 240.590038 
L 551.097011 538.125849 
" clip-path="url(#p43c6428d64)" style="fill: none; stroke: #0000ff; stroke-linecap: square"/>
   </g>
   <g id="line2d_8">
    <path d="M 551.097011 189.074151 
L 255.446341 138.379753 
" clip-path="url(#p43c6428d64)" style="fill: none; stroke: #0000ff; stroke-linecap: square"/>
   </g>
   <g id="line2d_9">
    <path d="M 535.640179 174.259977 
L 274.95543 129.561088 
" clip-path="url(#p43c6428d64)" style="fill: none; stroke: #0000ff; stroke-linecap: square"/>
   </g>
   <g id="line2d_10">
    <path d="M 518.9827 160.810003 
L 295.142113 122.428679 
" clip-path="url(#p43c6428d64)" style="fill: none; stroke: #0000ff; stroke-linecap: square"/>
   </g>
   <g id="line2d_11">
    <path d="M 501.244592 148.821134 
L 315.860944 117.033915 
" clip-path="url(#p43c6428d64)" style="fill: none; stroke: #0000ff; stroke-linecap: square"/>
   </g>
   <g id="line2d_12">
    <path d="M 379.704829 111.6 
L 358.295171 615.6 
" clip-path="url(#p43c6428d64)" style="fill: none; stroke-dasharray: 1.5,2.475; stroke-dashoffset: 0; stroke: #000000; stroke-width: 1.5"/>
   </g>
   <g id="line2d_13">
    <path d="M 219.0173 160.810003 
L 139.16333 467.492725 
" clip-path="url(#p43c6428d64)" style="fill: none; stroke: #0000ff; stroke-linecap: square"/>
   </g>
   <g id="line2d_14">
    <path d="M 202.359821 174.259977 
L 131.1806 447.626939 
" clip-path="url(#p43c6428d64)" style="fill: none; stroke: #0000ff; stroke-linecap: square"/>
   </g>
   <g id="line2d_15">
    <path d="M 186.902989 189.074151 
L 124.911365 427.155737 
" clip-path="url(#p43c6428d64)" style="fill: none; stroke: #0000ff; stroke-linecap: square"/>
   </g>
   <g id="line2d_16">
    <path d="M 172.758169 205.145788 
L 120.400794 406.226615 
" clip-path="url(#p43c6428d64)" style="fill: none; stroke: #0000ff; stroke-linecap: square"/>
   </g>
   <g id="line2d_17">
    <path d="M 160.027277 222.359091 
L 117.681386 384.990366 
" clip-path="url(#p43c6428d64)" style="fill: none; stroke: #0000ff; stroke-linecap: square"/>
   </g>
   <g id="line2d_18">
    <path d="M 219.0173 566.389997 
L 535.640179 552.940023 
" clip-path="url(#p43c6428d64)" style="fill: none; stroke: #0000ff; stroke-linecap: square"/>
   </g>
   <g id="line2d_19">
    <path d="M 236.755408 578.378866 
L 518.9827 566.389997 
" clip-path="url(#p43c6428d64)" style="fill: none; stroke: #0000ff; stroke-linecap: square"/>
   </g>
   <g id="line2d_20">
    <path d="M 255.446341 588.820247 
L 501.244592 578.378866 
" clip-path="url(#p43c6428d64)" style="fill: none; stroke: #0000ff; stroke-linecap: square"/>
   </g>
   <g id="line2d_21">
    <path d="M 274.95543 597.638912 
L 482.553659 588.820247 
" clip-path="url(#p43c6428d64)" style="fill: none; stroke: #0000ff; stroke-linecap: square"/>
   </g>
   <g id="line2d_22">
    <path d="M 295.142113 604.771321 
L 463.04457 597.638912 
" clip-path="url(#p43c6428d64)" style="fill: none; stroke: #0000ff; stroke-linecap: square"/>
   </g>
   <g id="text_1">
    <!-- G -->
    <g transform="translate(617.740468 366.083437)scale(0.09 -0.09)">
     <defs>
      <path id="DejaVuSans-47" d="M 3809 666 
L 3809 1919 
L 2778 1919 
L 2778 2438 
L 4434 2438 
L 4434 434 
Q 4069 175 3628 42 
Q 3188 -91 2688 -91 
Q 1594 -91 976 548 
Q 359 1188 359 2328 
Q 359 3472 976 4111 
Q 1594 4750 2688 4750 
Q 3144 4750 3555 4637 
Q 3966 4525 4313 4306 
L 4313 3634 
Q 3963 3931 3569 4081 
Q 3175 4231 2741 4231 
Q 1884 4231 1454 3753 
Q 1025 3275 1025 2328 
Q 1025 1384 1454 906 
Q 1884 428 2741 428 
Q 3075 428 3337 486 
Q 3600 544 3809 666 
z
" transform="scale(0.015625)"/>
     </defs>
     <use xlink:href="#DejaVuSans-47"/>
    </g>
   </g>
   <g id="text_2">
    <!-- C -->
    <g transform="translate(617.176348 344.693071)scale(0.09 -0.09)">
     <defs>
      <path id="DejaVuSans-43" d="M 4122 4306 
L 4122 3641 
Q 3803 3938 3442 4084 
Q 3081 4231 2675 4231 
Q 1875 4231 1450 3742 
Q 1025 3253 1025 2328 
Q 1025 1406 1450 917 
Q 1875 428 2675 428 
Q 3081 428 3442 575 
Q 3803 722 4122 1019 
L 4122 359 
Q 3791 134 3420 21 
Q 3050 -91 2638 -91 
Q 1578 -91 968 557 
Q 359 1206 359 2328 
Q 359 3453 968 4101 
Q 1578 4750 2638 4750 
Q 3056 4750 3426 4639 
Q 3797 4528 4122 4306 
z
" transform="scale(0.015625)"/>
     </defs>
     <use xlink:href="#DejaVuSans-43"/>
    </g>
   </g>
   <g id="text_3">
    <!-- G -->
    <g transform="translate(614.112409 323.456823)scale(0.09 -0.09)">
     <use xlink:href="#DejaVuSans-47"/>
    </g>
   </g>
   <g id="text_4">
    <!-- C -->
    <g transform="translate(609.946369 302.5277)scale(0.09 -0.09)">
     <use xlink:href="#DejaVuSans-43"/>
    </g>
   </g>
   <g id="text_5">
    <!-- G -->
    <g transform="translate(603.332603 282.056498)scale(0.09 -0.09)">
     <use xlink:href="#DejaVuSans-47"/>
    </g>
   </g>
   <g id="text_6">
    <!-- G -->
    <g transform="translate(595.349873 262.190712)scale(0.09 -0.09)">
     <use xlink:href="#DejaVuSans-47"/>
    </g>
   </g>
   <g id="text_7">
    <!-- A -->
    <g transform="translate(586.119681 243.073476)scale(0.09 -0.09)">
     <defs>
      <path id="DejaVuSans-41" d="M 2188 4044 
L 1331 1722 
L 3047 1722 
L 2188 4044 
z
M 1831 4666 
L 2547 4666 
L 4325 0 
L 3669 0 
L 3244 1197 
L 1141 1197 
L 716 0 
L 50 0 
L 1831 4666 
z
" transform="scale(0.015625)"/>
     </defs>
     <use xlink:href="#DejaVuSans-41"/>
    </g>
   </g>
   <g id="text_8">
    <!-- U -->
    <g transform="translate(574.679286 224.842529)scale(0.09 -0.09)">
     <defs>
      <path id="DejaVuSans-55" d="M 556 4666 
L 1191 4666 
L 1191 1831 
Q 1191 1081 1462 751 
Q 1734 422 2344 422 
Q 2950 422 3222 751 
Q 3494 1081 3494 1831 
L 3494 4666 
L 4128 4666 
L 4128 1753 
Q 4128 841 3676 375 
Q 3225 -91 2344 -91 
Q 1459 -91 1007 375 
Q 556 841 556 1753 
L 556 4666 
z
" transform="scale(0.015625)"/>
     </defs>
     <use xlink:href="#DejaVuSans-55"/>
    </g>
   </g>
   <g id="text_9">
    <!-- A -->
    <g transform="translate(562.163549 207.629226)scale(0.09 -0.09)">
     <use xlink:href="#DejaVuSans-41"/>
    </g>
   </g>
   <g id="text_10">
    <!-- G -->
    <g transform="translate(547.610214 191.557589)scale(0.09 -0.09)">
     <use xlink:href="#DejaVuSans-47"/>
    </g>
   </g>
   <g id="text_11">
    <!-- C -->
    <g transform="translate(532.497913 176.743415)scale(0.09 -0.09)">
     <use xlink:href="#DejaVuSans-43"/>
    </g>
   </g>
   <g id="text_12">
    <!-- U -->
    <g transform="translate(515.689262 163.29344)scale(0.09 -0.09)">
     <use xlink:href="#DejaVuSans-55"/>
    </g>
   </g>
   <g id="text_13">
    <!-- C -->
    <g transform="translate(498.102327 151.304572)scale(0.09 -0.09)">
     <use xlink:href="#DejaVuSans-43"/>
    </g>
   </g>
   <g id="text_14">
    <!-- A -->
    <g transform="translate(479.475378 140.86319)scale(0.09 -0.09)">
     <use xlink:href="#DejaVuSans-41"/>
    </g>
   </g>
   <g id="text_15">
    <!-- G -->
    <g transform="translate(459.557773 132.044526)scale(0.09 -0.09)">
     <use xlink:href="#DejaVuSans-47"/>
    </g>
   </g>
   <g id="text_16">
    <!-- U -->
    <g transform="translate(439.564449 124.912117)scale(0.09 -0.09)">
     <use xlink:href="#DejaVuSans-55"/>
    </g>
   </g>
   <g id="text_17">
    <!-- C -->
    <g transform="translate(418.99679 119.517353)scale(0.09 -0.09)">
     <use xlink:href="#DejaVuSans-43"/>
    </g>
   </g>
   <g id="text_18">
    <!-- G -->
    <g transform="translate(397.55056 115.899103)scale(0.09 -0.09)">
     <use xlink:href="#DejaVuSans-47"/>
    </g>
   </g>
   <g id="text_19">
    <!-- G -->
    <g transform="translate(376.218032 114.083437)scale(0.09 -0.09)">
     <use xlink:href="#DejaVuSans-47"/>
    </g>
   </g>
   <g id="text_20">
    <!-- U -->
    <g transform="translate(355.001734 114.083437)scale(0.09 -0.09)">
     <use xlink:href="#DejaVuSans-55"/>
    </g>
   </g>
   <g id="text_21">
    <!-- A -->
    <g transform="translate(333.884361 115.899103)scale(0.09 -0.09)">
     <use xlink:href="#DejaVuSans-41"/>
    </g>
   </g>
   <g id="text_22">
    <!-- G -->
    <g transform="translate(312.374147 119.517353)scale(0.09 -0.09)">
     <use xlink:href="#DejaVuSans-47"/>
    </g>
   </g>
   <g id="text_23">
    <!-- A -->
    <g transform="translate(292.063832 124.912117)scale(0.09 -0.09)">
     <use xlink:href="#DejaVuSans-41"/>
    </g>
   </g>
   <g id="text_24">
    <!-- G -->
    <g transform="translate(271.468633 132.044526)scale(0.09 -0.09)">
     <use xlink:href="#DejaVuSans-47"/>
    </g>
   </g>
   <g id="text_25">
    <!-- C -->
    <g transform="translate(252.304075 140.86319)scale(0.09 -0.09)">
     <use xlink:href="#DejaVuSans-43"/>
    </g>
   </g>
   <g id="text_26">
    <!-- A -->
    <g transform="translate(233.677126 151.304572)scale(0.09 -0.09)">
     <use xlink:href="#DejaVuSans-41"/>
    </g>
   </g>
   <g id="text_27">
    <!-- G -->
    <g transform="translate(215.530503 163.29344)scale(0.09 -0.09)">
     <use xlink:href="#DejaVuSans-47"/>
    </g>
   </g>
   <g id="text_28">
    <!-- G -->
    <g transform="translate(198.873024 176.743415)scale(0.09 -0.09)">
     <use xlink:href="#DejaVuSans-47"/>
    </g>
   </g>
   <g id="text_29">
    <!-- G -->
    <g transform="translate(183.416192 191.557589)scale(0.09 -0.09)">
     <use xlink:href="#DejaVuSans-47"/>
    </g>
   </g>
   <g id="text_30">
    <!-- G -->
    <g transform="translate(169.271373 207.629226)scale(0.09 -0.09)">
     <use xlink:href="#DejaVuSans-47"/>
    </g>
   </g>
   <g id="text_31">
    <!-- A -->
    <g transform="translate(156.948996 224.842529)scale(0.09 -0.09)">
     <use xlink:href="#DejaVuSans-41"/>
    </g>
   </g>
   <g id="text_32">
    <!-- U -->
    <g transform="translate(145.5086 243.073476)scale(0.09 -0.09)">
     <use xlink:href="#DejaVuSans-55"/>
    </g>
   </g>
   <g id="text_33">
    <!-- U -->
    <g transform="translate(135.869892 262.190712)scale(0.09 -0.09)">
     <use xlink:href="#DejaVuSans-55"/>
    </g>
   </g>
   <g id="text_34">
    <!-- G -->
    <g transform="translate(127.693804 282.056498)scale(0.09 -0.09)">
     <use xlink:href="#DejaVuSans-47"/>
    </g>
   </g>
   <g id="text_35">
    <!-- A -->
    <g transform="translate(121.833084 302.5277)scale(0.09 -0.09)">
     <use xlink:href="#DejaVuSans-41"/>
    </g>
   </g>
   <g id="text_36">
    <!-- A -->
    <g transform="translate(117.322513 323.456823)scale(0.09 -0.09)">
     <use xlink:href="#DejaVuSans-41"/>
    </g>
   </g>
   <g id="text_37">
    <!-- A -->
    <g transform="translate(114.603105 344.693071)scale(0.09 -0.09)">
     <use xlink:href="#DejaVuSans-41"/>
    </g>
   </g>
   <g id="text_38">
    <!-- A -->
    <g transform="translate(113.694453 366.083437)scale(0.09 -0.09)">
     <use xlink:href="#DejaVuSans-41"/>
    </g>
   </g>
   <g id="text_39">
    <!-- U -->
    <g transform="translate(114.387949 387.473804)scale(0.09 -0.09)">
     <use xlink:href="#DejaVuSans-55"/>
    </g>
   </g>
   <g id="text_40">
    <!-- C -->
    <g transform="translate(117.258529 408.710052)scale(0.09 -0.09)">
     <use xlink:href="#DejaVuSans-43"/>
    </g>
   </g>
   <g id="text_41">
    <!-- C -->
    <g transform="translate(121.7691 429.639175)scale(0.09 -0.09)">
     <use xlink:href="#DejaVuSans-43"/>
    </g>
   </g>
   <g id="text_42">
    <!-- C -->
    <g transform="translate(128.038335 450.110377)scale(0.09 -0.09)">
     <use xlink:href="#DejaVuSans-43"/>
    </g>
   </g>
   <g id="text_43">
    <!-- C -->
    <g transform="translate(136.021064 469.976163)scale(0.09 -0.09)">
     <use xlink:href="#DejaVuSans-43"/>
    </g>
   </g>
   <g id="text_44">
    <!-- G -->
    <g transform="translate(145.315241 489.093399)scale(0.09 -0.09)">
     <use xlink:href="#DejaVuSans-47"/>
    </g>
   </g>
   <g id="text_45">
    <!-- U -->
    <g transform="translate(156.733839 507.324346)scale(0.09 -0.09)">
     <use xlink:href="#DejaVuSans-55"/>
    </g>
   </g>
   <g id="text_46">
    <!-- G -->
    <g transform="translate(169.271373 524.537649)scale(0.09 -0.09)">
     <use xlink:href="#DejaVuSans-47"/>
    </g>
   </g>
   <g id="text_47">
    <!-- U -->
    <g transform="translate(183.609551 540.609286)scale(0.09 -0.09)">
     <use xlink:href="#DejaVuSans-55"/>
    </g>
   </g>
   <g id="text_48">
    <!-- C -->
    <g transform="translate(199.217556 555.42346)scale(0.09 -0.09)">
     <use xlink:href="#DejaVuSans-43"/>
    </g>
   </g>
   <g id="text_49">
    <!-- C -->
    <g transform="translate(215.875034 568.873435)scale(0.09 -0.09)">
     <use xlink:href="#DejaVuSans-43"/>
    </g>
   </g>
   <g id="text_50">
    <!-- U -->
    <g transform="translate(233.46197 580.862303)scale(0.09 -0.09)">
     <use xlink:href="#DejaVuSans-55"/>
    </g>
   </g>
   <g id="text_51">
    <!-- U -->
    <g transform="translate(252.152903 591.303685)scale(0.09 -0.09)">
     <use xlink:href="#DejaVuSans-55"/>
    </g>
   </g>
   <g id="text_52">
    <!-- G -->
    <g transform="translate(271.468633 600.122349)scale(0.09 -0.09)">
     <use xlink:href="#DejaVuSans-47"/>
    </g>
   </g>
   <g id="text_53">
    <!-- G -->
    <g transform="translate(291.655316 607.254758)scale(0.09 -0.09)">
     <use xlink:href="#DejaVuSans-47"/>
    </g>
   </g>
   <g id="text_54">
    <!-- U -->
    <g transform="translate(312.567506 612.649522)scale(0.09 -0.09)">
     <use xlink:href="#DejaVuSans-55"/>
    </g>
   </g>
   <g id="text_55">
    <!-- U -->
    <g transform="translate(333.669205 616.267772)scale(0.09 -0.09)">
     <use xlink:href="#DejaVuSans-55"/>
    </g>
   </g>
   <g id="text_56">
    <!-- C -->
    <g transform="translate(355.152906 618.083437)scale(0.09 -0.09)">
     <use xlink:href="#DejaVuSans-43"/>
    </g>
   </g>
   <g id="text_57">
    <!-- G -->
    <g transform="translate(376.218032 618.083437)scale(0.09 -0.09)">
     <use xlink:href="#DejaVuSans-47"/>
    </g>
   </g>
   <g id="text_58">
    <!-- A -->
    <g transform="translate(397.959076 616.267772)scale(0.09 -0.09)">
     <use xlink:href="#DejaVuSans-41"/>
    </g>
   </g>
   <g id="text_59">
    <!-- U -->
    <g transform="translate(418.845619 612.649522)scale(0.09 -0.09)">
     <use xlink:href="#DejaVuSans-55"/>
    </g>
   </g>
   <g id="text_60">
    <!-- U -->
    <g transform="translate(439.564449 607.254758)scale(0.09 -0.09)">
     <use xlink:href="#DejaVuSans-55"/>
    </g>
   </g>
   <g id="text_61">
    <!-- C -->
    <g transform="translate(459.902304 600.122349)scale(0.09 -0.09)">
     <use xlink:href="#DejaVuSans-43"/>
    </g>
   </g>
   <g id="text_62">
    <!-- C -->
    <g transform="translate(479.411394 591.303685)scale(0.09 -0.09)">
     <use xlink:href="#DejaVuSans-43"/>
    </g>
   </g>
   <g id="text_63">
    <!-- G -->
    <g transform="translate(497.757795 580.862303)scale(0.09 -0.09)">
     <use xlink:href="#DejaVuSans-47"/>
    </g>
   </g>
   <g id="text_64">
    <!-- A -->
    <g transform="translate(515.904419 568.873435)scale(0.09 -0.09)">
     <use xlink:href="#DejaVuSans-41"/>
    </g>
   </g>
   <g id="text_65">
    <!-- G -->
    <g transform="translate(532.153382 555.42346)scale(0.09 -0.09)">
     <use xlink:href="#DejaVuSans-47"/>
    </g>
   </g>
   <g id="text_66">
    <!-- U -->
    <g transform="translate(547.803574 540.609286)scale(0.09 -0.09)">
     <use xlink:href="#DejaVuSans-55"/>
    </g>
   </g>
   <g id="text_67">
    <!-- C -->
    <g transform="translate(562.099565 524.537649)scale(0.09 -0.09)">
     <use xlink:href="#DejaVuSans-43"/>
    </g>
   </g>
   <g id="text_68">
    <!-- C -->
    <g transform="translate(574.830457 507.324346)scale(0.09 -0.09)">
     <use xlink:href="#DejaVuSans-43"/>
    </g>
   </g>
   <g id="text_69">
    <!-- G -->
    <g transform="translate(585.711165 489.093399)scale(0.09 -0.09)">
     <use xlink:href="#DejaVuSans-47"/>
    </g>
   </g>
   <g id="text_70">
    <!-- C -->
    <g transform="translate(595.694405 469.976163)scale(0.09 -0.09)">
     <use xlink:href="#DejaVuSans-43"/>
    </g>
   </g>
   <g id="text_71">
    <!-- G -->
    <g transform="translate(603.332603 450.110377)scale(0.09 -0.09)">
     <use xlink:href="#DejaVuSans-47"/>
    </g>
   </g>
   <g id="text_72">
    <!-- C -->
    <g transform="translate(609.946369 429.639175)scale(0.09 -0.09)">
     <use xlink:href="#DejaVuSans-43"/>
    </g>
   </g>
   <g id="text_73">
    <!-- A -->
    <g transform="translate(614.520924 408.710052)scale(0.09 -0.09)">
     <use xlink:href="#DejaVuSans-41"/>
    </g>
   </g>
   <g id="text_74">
    <!-- C -->
    <g transform="translate(617.176348 387.473804)scale(0.09 -0.09)">
     <use xlink:href="#DejaVuSans-43"/>
    </g>
   </g>
   <g id="text_75">
    <!-- Circular visualization of bracket RNA sequence -->
    <g transform="translate(228.8775 80.4)scale(0.12 -0.12)">
     <defs>
      <path id="DejaVuSans-69" d="M 603 3500 
L 1178 3500 
L 1178 0 
L 603 0 
L 603 3500 
z
M 603 4863 
L 1178 4863 
L 1178 4134 
L 603 4134 
L 603 4863 
z
" transform="scale(0.015625)"/>
      <path id="DejaVuSans-72" d="M 2631 2963 
Q 2534 3019 2420 3045 
Q 2306 3072 2169 3072 
Q 1681 3072 1420 2755 
Q 1159 2438 1159 1844 
L 1159 0 
L 581 0 
L 581 3500 
L 1159 3500 
L 1159 2956 
Q 1341 3275 1631 3429 
Q 1922 3584 2338 3584 
Q 2397 3584 2469 3576 
Q 2541 3569 2628 3553 
L 2631 2963 
z
" transform="scale(0.015625)"/>
      <path id="DejaVuSans-63" d="M 3122 3366 
L 3122 2828 
Q 2878 2963 2633 3030 
Q 2388 3097 2138 3097 
Q 1578 3097 1268 2742 
Q 959 2388 959 1747 
Q 959 1106 1268 751 
Q 1578 397 2138 397 
Q 2388 397 2633 464 
Q 2878 531 3122 666 
L 3122 134 
Q 2881 22 2623 -34 
Q 2366 -91 2075 -91 
Q 1284 -91 818 406 
Q 353 903 353 1747 
Q 353 2603 823 3093 
Q 1294 3584 2113 3584 
Q 2378 3584 2631 3529 
Q 2884 3475 3122 3366 
z
" transform="scale(0.015625)"/>
      <path id="DejaVuSans-75" d="M 544 1381 
L 544 3500 
L 1119 3500 
L 1119 1403 
Q 1119 906 1312 657 
Q 1506 409 1894 409 
Q 2359 409 2629 706 
Q 2900 1003 2900 1516 
L 2900 3500 
L 3475 3500 
L 3475 0 
L 2900 0 
L 2900 538 
Q 2691 219 2414 64 
Q 2138 -91 1772 -91 
Q 1169 -91 856 284 
Q 544 659 544 1381 
z
M 1991 3584 
L 1991 3584 
z
" transform="scale(0.015625)"/>
      <path id="DejaVuSans-6c" d="M 603 4863 
L 1178 4863 
L 1178 0 
L 603 0 
L 603 4863 
z
" transform="scale(0.015625)"/>
      <path id="DejaVuSans-61" d="M 2194 1759 
Q 1497 1759 1228 1600 
Q 959 1441 959 1056 
Q 959 750 1161 570 
Q 1363 391 1709 391 
Q 2188 391 2477 730 
Q 2766 1069 2766 1631 
L 2766 1759 
L 2194 1759 
z
M 3341 1997 
L 3341 0 
L 2766 0 
L 2766 531 
Q 2569 213 2275 61 
Q 1981 -91 1556 -91 
Q 1019 -91 701 211 
Q 384 513 384 1019 
Q 384 1609 779 1909 
Q 1175 2209 1959 2209 
L 2766 2209 
L 2766 2266 
Q 2766 2663 2505 2880 
Q 2244 3097 1772 3097 
Q 1472 3097 1187 3025 
Q 903 2953 641 2809 
L 641 3341 
Q 956 3463 1253 3523 
Q 1550 3584 1831 3584 
Q 2591 3584 2966 3190 
Q 3341 2797 3341 1997 
z
" transform="scale(0.015625)"/>
      <path id="DejaVuSans-20" transform="scale(0.015625)"/>
      <path id="DejaVuSans-76" d="M 191 3500 
L 800 3500 
L 1894 563 
L 2988 3500 
L 3597 3500 
L 2284 0 
L 1503 0 
L 191 3500 
z
" transform="scale(0.015625)"/>
      <path id="DejaVuSans-73" d="M 2834 3397 
L 2834 2853 
Q 2591 2978 2328 3040 
Q 2066 3103 1784 3103 
Q 1356 3103 1142 2972 
Q 928 2841 928 2578 
Q 928 2378 1081 2264 
Q 1234 2150 1697 2047 
L 1894 2003 
Q 2506 1872 2764 1633 
Q 3022 1394 3022 966 
Q 3022 478 2636 193 
Q 2250 -91 1575 -91 
Q 1294 -91 989 -36 
Q 684 19 347 128 
L 347 722 
Q 666 556 975 473 
Q 1284 391 1588 391 
Q 1994 391 2212 530 
Q 2431 669 2431 922 
Q 2431 1156 2273 1281 
Q 2116 1406 1581 1522 
L 1381 1569 
Q 847 1681 609 1914 
Q 372 2147 372 2553 
Q 372 3047 722 3315 
Q 1072 3584 1716 3584 
Q 2034 3584 2315 3537 
Q 2597 3491 2834 3397 
z
" transform="scale(0.015625)"/>
      <path id="DejaVuSans-7a" d="M 353 3500 
L 3084 3500 
L 3084 2975 
L 922 459 
L 3084 459 
L 3084 0 
L 275 0 
L 275 525 
L 2438 3041 
L 353 3041 
L 353 3500 
z
" transform="scale(0.015625)"/>
      <path id="DejaVuSans-74" d="M 1172 4494 
L 1172 3500 
L 2356 3500 
L 2356 3053 
L 1172 3053 
L 1172 1153 
Q 1172 725 1289 603 
Q 1406 481 1766 481 
L 2356 481 
L 2356 0 
L 1766 0 
Q 1100 0 847 248 
Q 594 497 594 1153 
L 594 3053 
L 172 3053 
L 172 3500 
L 594 3500 
L 594 4494 
L 1172 4494 
z
" transform="scale(0.015625)"/>
      <path id="DejaVuSans-6f" d="M 1959 3097 
Q 1497 3097 1228 2736 
Q 959 2375 959 1747 
Q 959 1119 1226 758 
Q 1494 397 1959 397 
Q 2419 397 2687 759 
Q 2956 1122 2956 1747 
Q 2956 2369 2687 2733 
Q 2419 3097 1959 3097 
z
M 1959 3584 
Q 2709 3584 3137 3096 
Q 3566 2609 3566 1747 
Q 3566 888 3137 398 
Q 2709 -91 1959 -91 
Q 1206 -91 779 398 
Q 353 888 353 1747 
Q 353 2609 779 3096 
Q 1206 3584 1959 3584 
z
" transform="scale(0.015625)"/>
      <path id="DejaVuSans-6e" d="M 3513 2113 
L 3513 0 
L 2938 0 
L 2938 2094 
Q 2938 2591 2744 2837 
Q 2550 3084 2163 3084 
Q 1697 3084 1428 2787 
Q 1159 2491 1159 1978 
L 1159 0 
L 581 0 
L 581 3500 
L 1159 3500 
L 1159 2956 
Q 1366 3272 1645 3428 
Q 1925 3584 2291 3584 
Q 2894 3584 3203 3211 
Q 3513 2838 3513 2113 
z
" transform="scale(0.015625)"/>
      <path id="DejaVuSans-66" d="M 2375 4863 
L 2375 4384 
L 1825 4384 
Q 1516 4384 1395 4259 
Q 1275 4134 1275 3809 
L 1275 3500 
L 2222 3500 
L 2222 3053 
L 1275 3053 
L 1275 0 
L 697 0 
L 697 3053 
L 147 3053 
L 147 3500 
L 697 3500 
L 697 3744 
Q 697 4328 969 4595 
Q 1241 4863 1831 4863 
L 2375 4863 
z
" transform="scale(0.015625)"/>
      <path id="DejaVuSans-62" d="M 3116 1747 
Q 3116 2381 2855 2742 
Q 2594 3103 2138 3103 
Q 1681 3103 1420 2742 
Q 1159 2381 1159 1747 
Q 1159 1113 1420 752 
Q 1681 391 2138 391 
Q 2594 391 2855 752 
Q 3116 1113 3116 1747 
z
M 1159 2969 
Q 1341 3281 1617 3432 
Q 1894 3584 2278 3584 
Q 2916 3584 3314 3078 
Q 3713 2572 3713 1747 
Q 3713 922 3314 415 
Q 2916 -91 2278 -91 
Q 1894 -91 1617 61 
Q 1341 213 1159 525 
L 1159 0 
L 581 0 
L 581 4863 
L 1159 4863 
L 1159 2969 
z
" transform="scale(0.015625)"/>
      <path id="DejaVuSans-6b" d="M 581 4863 
L 1159 4863 
L 1159 1991 
L 2875 3500 
L 3609 3500 
L 1753 1863 
L 3688 0 
L 2938 0 
L 1159 1709 
L 1159 0 
L 581 0 
L 581 4863 
z
" transform="scale(0.015625)"/>
      <path id="DejaVuSans-65" d="M 3597 1894 
L 3597 1613 
L 953 1613 
Q 991 1019 1311 708 
Q 1631 397 2203 397 
Q 2534 397 2845 478 
Q 3156 559 3463 722 
L 3463 178 
Q 3153 47 2828 -22 
Q 2503 -91 2169 -91 
Q 1331 -91 842 396 
Q 353 884 353 1716 
Q 353 2575 817 3079 
Q 1281 3584 2069 3584 
Q 2775 3584 3186 3129 
Q 3597 2675 3597 1894 
z
M 3022 2063 
Q 3016 2534 2758 2815 
Q 2500 3097 2075 3097 
Q 1594 3097 1305 2825 
Q 1016 2553 972 2059 
L 3022 2063 
z
" transform="scale(0.015625)"/>
      <path id="DejaVuSans-52" d="M 2841 2188 
Q 3044 2119 3236 1894 
Q 3428 1669 3622 1275 
L 4263 0 
L 3584 0 
L 2988 1197 
Q 2756 1666 2539 1819 
Q 2322 1972 1947 1972 
L 1259 1972 
L 1259 0 
L 628 0 
L 628 4666 
L 2053 4666 
Q 2853 4666 3247 4331 
Q 3641 3997 3641 3322 
Q 3641 2881 3436 2590 
Q 3231 2300 2841 2188 
z
M 1259 4147 
L 1259 2491 
L 2053 2491 
Q 2509 2491 2742 2702 
Q 2975 2913 2975 3322 
Q 2975 3731 2742 3939 
Q 2509 4147 2053 4147 
L 1259 4147 
z
" transform="scale(0.015625)"/>
      <path id="DejaVuSans-4e" d="M 628 4666 
L 1478 4666 
L 3547 763 
L 3547 4666 
L 4159 4666 
L 4159 0 
L 3309 0 
L 1241 3903 
L 1241 0 
L 628 0 
L 628 4666 
z
" transform="scale(0.015625)"/>
      <path id="DejaVuSans-71" d="M 947 1747 
Q 947 1113 1208 752 
Q 1469 391 1925 391 
Q 2381 391 2643 752 
Q 2906 1113 2906 1747 
Q 2906 2381 2643 2742 
Q 2381 3103 1925 3103 
Q 1469 3103 1208 2742 
Q 947 2381 947 1747 
z
M 2906 525 
Q 2725 213 2448 61 
Q 2172 -91 1784 -91 
Q 1150 -91 751 415 
Q 353 922 353 1747 
Q 353 2572 751 3078 
Q 1150 3584 1784 3584 
Q 2172 3584 2448 3432 
Q 2725 3281 2906 2969 
L 2906 3500 
L 3481 3500 
L 3481 -1331 
L 2906 -1331 
L 2906 525 
z
" transform="scale(0.015625)"/>
     </defs>
     <use xlink:href="#DejaVuSans-43"/>
     <use xlink:href="#DejaVuSans-69" x="69.824219"/>
     <use xlink:href="#DejaVuSans-72" x="97.607422"/>
     <use xlink:href="#DejaVuSans-63" x="136.470703"/>
     <use xlink:href="#DejaVuSans-75" x="191.451172"/>
     <use xlink:href="#DejaVuSans-6c" x="254.830078"/>
     <use xlink:href="#DejaVuSans-61" x="282.613281"/>
     <use xlink:href="#DejaVuSans-72" x="343.892578"/>
     <use xlink:href="#DejaVuSans-20" x="385.005859"/>
     <use xlink:href="#DejaVuSans-76" x="416.792969"/>
     <use xlink:href="#DejaVuSans-69" x="475.972656"/>
     <use xlink:href="#DejaVuSans-73" x="503.755859"/>
     <use xlink:href="#DejaVuSans-75" x="555.855469"/>
     <use xlink:href="#DejaVuSans-61" x="619.234375"/>
     <use xlink:href="#DejaVuSans-6c" x="680.513672"/>
     <use xlink:href="#DejaVuSans-69" x="708.296875"/>
     <use xlink:href="#DejaVuSans-7a" x="736.080078"/>
     <use xlink:href="#DejaVuSans-61" x="788.570312"/>
     <use xlink:href="#DejaVuSans-74" x="849.849609"/>
     <use xlink:href="#DejaVuSans-69" x="889.058594"/>
     <use xlink:href="#DejaVuSans-6f" x="916.841797"/>
     <use xlink:href="#DejaVuSans-6e" x="978.023438"/>
     <use xlink:href="#DejaVuSans-20" x="1041.402344"/>
     <use xlink:href="#DejaVuSans-6f" x="1073.189453"/>
     <use xlink:href="#DejaVuSans-66" x="1134.371094"/>
     <use xlink:href="#DejaVuSans-20" x="1169.576172"/>
     <use xlink:href="#DejaVuSans-62" x="1201.363281"/>
     <use xlink:href="#DejaVuSans-72" x="1264.839844"/>
     <use xlink:href="#DejaVuSans-61" x="1305.953125"/>
     <use xlink:href="#DejaVuSans-63" x="1367.232422"/>
     <use xlink:href="#DejaVuSans-6b" x="1422.212891"/>
     <use xlink:href="#DejaVuSans-65" x="1476.498047"/>
     <use xlink:href="#DejaVuSans-74" x="1538.021484"/>
     <use xlink:href="#DejaVuSans-20" x="1577.230469"/>
     <use xlink:href="#DejaVuSans-52" x="1609.017578"/>
     <use xlink:href="#DejaVuSans-4e" x="1678.5"/>
     <use xlink:href="#DejaVuSans-41" x="1753.304688"/>
     <use xlink:href="#DejaVuSans-20" x="1821.712891"/>
     <use xlink:href="#DejaVuSans-73" x="1853.5"/>
     <use xlink:href="#DejaVuSans-65" x="1905.599609"/>
     <use xlink:href="#DejaVuSans-71" x="1967.123047"/>
     <use xlink:href="#DejaVuSans-75" x="2030.599609"/>
     <use xlink:href="#DejaVuSans-65" x="2093.978516"/>
     <use xlink:href="#DejaVuSans-6e" x="2155.501953"/>
     <use xlink:href="#DejaVuSans-63" x="2218.880859"/>
     <use xlink:href="#DejaVuSans-65" x="2273.861328"/>
    </g>
   </g>
  </g>
 </g>
 <defs>
  <clipPath id="p43c6428d64">
   <rect x="91.550008" y="86.4" width="554.899984" height="554.4"/>
  </clipPath>
 </defs>
</svg>
